#!OML:ASF F:\VICON\USERDATA\INSTALL\rory3\rory3.ASF
:FULLY-SPECIFIED
:DEGREES
85
root -0.23469745636993566 17.87083766566714 28.917616770213094 -3.688615021335023 -1.487953570039477 -5.431405728030765
lfemur -12.455467959107843 -0.5752794331499338 -16.19139561915964
ltibia 68.12836238611092
lfoot -6.230225362387989 -3.645249475728553
ltoes -4.677618384437048
rfemur -16.22169693158687 5.92882520107559 27.755196725390334
rtibia 31.382710202805015
rfoot -7.632388556828484 -6.768582567550302
rtoes 4.541355050582708
lowerback 10.583541155563841 -0.0006007014644874853 2.0405081761354507
upperback 0.4119850657594287 0.2891623507696495 2.375310311682508
thorax -5.308380749040777 -0.4117827846089545 2.5400745089864447
lowerneck -15.145220759899326 -2.8334163096848712 -3.0815861397859177
upperneck 22.811685594022745 -3.331612500930417 0.4293462855090896
head 9.668254323696907 -1.7699879250261492 0.12475212543443825
lclavicle -1.3905274626105606e-15 -1.8578664030432505e-15
lhumerus -33.93229180743454 1.973581505154368 80.66491718716414
lradius 28.95793262911436
lwrist 3.8308110800179898
lhand -27.209502825864337 24.934331744395717
lfingers 7.125019999999999
lthumb -0.6923246127858165 54.78269481427818
rclavicle -1.3882905662748448e-15 -1.844522099442434e-15
rhumerus -32.14136071649006 -23.92036785151494 -73.7396034224425
rradius 18.420324388105456
rwrist 14.372097734082793
rhand -17.84624938235655 22.594779407109122
rfingers 7.125019999999999
rthumb 8.276172745645853 -7.224940333030273
86
root -0.23436923405597665 17.85398648298189 29.174100806008347 -3.4646314810500063 -1.8602280894156162 -5.743015514765299
lfemur -16.800849936226466 0.3978209820142289 -15.990496382787814
ltibia 69.01375796812945
lfoot -5.700928335714205 -3.338277758955814
ltoes -4.826382220295443
rfemur -14.749717701745839 6.0365569704631845 28.28456198502939
rtibia 31.19491925059461
rfoot -8.305971835202843 -6.796762514260386
rtoes 4.172818953804979
lowerback 10.603526540153144 0.23961882082458325 2.4519420556420997
upperback 0.39106270690754885 0.6994295036751658 2.3049823234485802
thorax -5.381119021898615 -0.22657011573662483 2.0641085979159177
lowerneck -15.179421312631877 -2.8414131843940624 -3.0709817004398072
upperneck 22.843330415074856 -3.3574817431785857 0.4475109651786478
head 9.675971777321443 -1.7679770334691112 0.1387663566039356
lclavicle -1.3905274821379953e-15 -1.857866420176027e-15
lhumerus -34.23449962817237 2.418039283721491 80.58464792274012
lradius 28.346797376042666
lwrist 3.5234288699587384
lhand -27.196937814943354 24.89710406734337
lfingers 7.125019999999999
lthumb -0.6847121154452277 54.786780501285826
rclavicle -1.3882905661283551e-15 -1.8445220993679333e-15
rhumerus -30.931544580705413 -22.485646027998865 -74.51764579135434
rradius 18.58724702216666
rwrist 12.74808888933937
rhand -17.84225666822478 22.616598353803653
rfingers 7.125019999999999
rthumb 8.27513284016039 -7.229884196069048
87
root -0.22426905700304745 17.824661834352852 29.59081643304728 -3.1433114100859347 -2.204577985255608 -6.123876812277152
lfemur -20.845480756558636 1.0446740635824616 -15.950251203871098
ltibia 67.48752724489597
lfoot -6.602185875223551 -3.366167476042101
ltoes -4.730069025837674
rfemur -13.579368758547888 6.097994256090085 28.721064189687187
rtibia 31.125323047248045
rfoot -8.579420475465879 -6.5867026810066385
rtoes 3.868005694259909
lowerback 10.623158618495413 0.46413512038224647 2.8250841180458837
upperback 0.3493887110771462 1.0824843767130425 2.2223505158616805
thorax -5.436087081935782 -0.022926688510661875 1.54095288860784
lowerneck -15.23313466412292 -2.8519618245638227 -3.070647154198883
upperneck 22.854267423019575 -3.37502154386693 0.44893977438235194
head 9.69085762637927 -1.7608713390032424 0.15062923597473787
lclavicle -1.3905274904309496e-15 -1.8578664285739357e-15
lhumerus -34.250557806307675 2.919817944917248 80.61811175473171
lradius 27.73212769264806
lwrist 3.2544724287053173
lhand -27.18752933696435 24.83515520477181
lfingers 7.125019999999999
lthumb -0.6828030338603649 54.76490877101224
rclavicle -1.3882905628761459e-15 -1.8445220962947127e-15
rhumerus -29.73403363335844 -20.862811910584107 -75.34395211942332
rradius 19.01655431166423
rwrist 10.614222391614637
rhand -17.846117035684912 22.63346272893242
rfingers 7.125019999999999
rthumb 8.26889733537763 -7.240937600548537
88
root -0.20511288428679275 17.793317379648098 30.15127163417155 -2.727098771370442 -2.5036605419782028 -6.547364358703421
lfemur -24.215889484361583 1.3747351581154135 -15.86089238641377
ltibia 63.65846351973918
lfoot -7.236711005230484 -3.2341495363542956
ltoes -4.326391564330878
rfemur -12.628936298799228 6.0899501179844 29.125685100557742
rtibia 30.925149521955422
rfoot -8.801638416556887 -6.469297441122406
rtoes 3.4372252742184988
lowerback 10.630473701658675 0.6597580763997506 3.14057461944357
upperback 0.2895820225603701 1.4018110505079568 2.1341969944368167
thorax -5.469145165983498 0.1945049921394738 0.9944052742961662
lowerneck -15.271952562740953 -2.85163441445927 -3.0591272741236675
upperneck 22.86035238242348 -3.3824663810267013 0.44516544172889366
head 9.711369190528456 -1.7508519856939875 0.16148616712373182
lclavicle -1.3905274993910422e-15 -1.8578664369126988e-15
lhumerus -34.390495582516024 3.1293787357899356 80.64812117747925
lradius 27.1364908174364
lwrist 2.970038963532483
lhand -27.17736125388623 24.75619064221814
lfingers 7.125019999999999
lthumb -0.6849097205661432 54.71814284323721
rclavicle -1.3882905651046286e-15 -1.8445220983470404e-15
rhumerus -28.85423556070295 -19.6235668254361 -76.39060686082813
rradius 19.685228454094265
rwrist 8.218534364099876
rhand -17.856757990433117 22.642866502142216
rfingers 7.125019999999999
rthumb 8.259678790001164 -7.251394870718998
89
root -0.18044512541205004 17.763543142369947 30.727337924160267 -2.247176120942969 -2.7960480307488784 -6.967367159087413
lfemur -26.4939854673746 1.4050611617626911 -15.635015839473427
ltibia 57.33663725724214
lfoot -7.120768983709265 -3.730929749591188
ltoes -3.7998303233787287
rfemur -11.15498540874217 6.2289413264901725 29.7121520825525
rtibia 30.330038550619616
rfoot -8.998134335880186 -6.474438897874984
rtoes 2.9561382156347698
lowerback 10.616678064013394 0.824895420393073 3.388571406950938
upperback 0.22061975021070424 1.657987359890403 2.0546052969052564
thorax -5.4797612869049415 0.41429800836136965 0.43709412832140515
lowerneck -15.32588811784372 -2.8511864591503167 -3.0578506622376196
upperneck 22.84957665090351 -3.392343601217546 0.45509364831723215
head 9.726155180022499 -1.741398560223386 0.1750569988129031
lclavicle -1.3905274992656437e-15 -1.8578664352803117e-15
lhumerus -34.796396678968826 3.0870068963421486 80.55680776389859
lradius 26.564317620828476
lwrist 2.6150307920925475
lhand -27.164232864024594 24.668462165513898
lfingers 7.125019999999999
lthumb -0.6880231779061371 54.65357673301733
rclavicle -1.3882905636351801e-15 -1.844522096980906e-15
rhumerus -28.16917150940503 -18.68420464169276 -77.26874441036152
rradius 20.568539861712434
rwrist 5.890451197342188
rhand -17.869945099830034 22.65017672337177
rfingers 7.125019999999999
rthumb 8.250431206590742 -7.254822716007007
90
root -0.15057666313443185 17.732981735692572 31.38924988587894 -1.765823513590403 -3.0890565814426205 -7.27031439047739
lfemur -27.541095501487376 0.9954329456997644 -15.166339726728673
ltibia 48.40621915996096
lfoot -5.821892528577229 -3.988500970337568
ltoes -3.4745108671340215
rfemur -9.754467043570155 6.36431734090602 30.059968561221098
rtibia 29.28027439243564
rfoot -9.290484658262239 -6.725759072092268
rtoes 2.4514839349297444
lowerback 10.571554439358012 0.9616196263251588 3.545281227903819
upperback 0.15499064332861864 1.8764430113040405 1.9935593462458834
thorax -5.46618638021129 0.6265733276679633 -0.1035788239138411
lowerneck -15.362928137446819 -2.8435798909295533 -3.050457849034014
upperneck 22.8193625750987 -3.410019311343744 0.46845657629911736
head 9.724622688663478 -1.7386709234689917 0.18628729949992856
lclavicle -1.3905275070672769e-15 -1.8578664415009875e-15
lhumerus -34.96510267362542 3.2278858424645924 80.49737459902805
lradius 26.004734158631848
lwrist 2.171402627237403
lhand -27.145208801603673 24.581086416552502
lfingers 7.125019999999999
lthumb -0.6890615637896997 54.5798433356027
rclavicle -1.3882905623983677e-15 -1.84452209585651e-15
rhumerus -27.671805614030646 -18.06055600526234 -77.94096170672147
rradius 21.634572394636145
rwrist 3.755477032041197
rhand -17.883059229038 22.657379427707838
rfingers 7.125019999999999
rthumb 8.241688619161547 -7.2479098563335285
